<?xml version="1.0" encoding="UTF-8"?><svg id="uuid-2295aafb-b39a-4e2f-a630-582a659fb941" xmlns="http://www.w3.org/2000/svg" viewBox="0 0 803.9 282.18"><defs><style>.uuid-e1044ee3-f4c5-4451-9f28-1758e4136712{fill:#333;}</style></defs><path class="uuid-e1044ee3-f4c5-4451-9f28-1758e4136712" d="M13.22,252.8L0,282.17H8.12l2.5-5.55H27.28l2.5,5.55h8.05l-13.19-29.37H13.22Zm.03,17.91l5.64-12.6,5.74,12.62-11.38-.02Z"/><polygon class="uuid-e1044ee3-f4c5-4451-9f28-1758e4136712" points="62.71 271.62 54.64 252.8 41.72 252.8 41.72 282.17 49.01 282.17 49.01 257.32 59.57 282.17 65.82 282.17 76.37 257.53 76.37 282.17 83.66 282.17 83.66 252.8 70.83 252.81 62.71 271.62"/><polygon class="uuid-e1044ee3-f4c5-4451-9f28-1758e4136712" points="88.38 282.17 116.08 282.17 116.08 275.37 95.67 275.37 95.67 270.3 114.9 270.3 114.9 264.4 95.67 264.4 95.67 259.61 116.08 259.61 116.08 252.8 88.38 252.8 88.38 282.17"/><path class="uuid-e1044ee3-f4c5-4451-9f28-1758e4136712" d="M143.51,252.8h-23.75v29.37h7.29v-7.36h14.16c.74,0,1.31,.57,1.7,1.72,.39,1.15,.59,3.03,.59,5.64h7.29c0-3.73-.2-6.49-.59-8.28-.39-1.79-1.38-2.81-2.95-3.04,1.11-.93,1.98-1.79,2.6-2.61,.63-.81,.94-1.82,.94-3.02v-5c0-2.08-.72-3.84-2.15-5.28-1.44-1.43-3.15-2.15-5.14-2.15Zm-.97,13.47c-.65,.74-1.41,1.11-2.29,1.11h-13.19v-7.15h13.19c.88,0,1.64,.32,2.29,.97,.65,.65,.97,1.41,.97,2.29,0,1.11-.32,2.04-.97,2.78Z"/><rect class="uuid-e1044ee3-f4c5-4451-9f28-1758e4136712" x="155.72" y="252.8" width="7.29" height="29.37"/><path class="uuid-e1044ee3-f4c5-4451-9f28-1758e4136712" d="M194.47,252.8h-20c-2.04,0-3.76,.66-5.17,1.98-1.41,1.32-2.12,2.93-2.12,4.83v15.76c0,1.9,.71,3.51,2.12,4.82,1.41,1.32,3.14,1.98,5.17,1.98h20c1.99,0,3.7-.67,5.14-2.01,1.43-1.34,2.15-2.94,2.15-4.79v-4.17h-7.29c0,1.16-.41,2.14-1.22,2.95-.81,.81-1.79,1.22-2.95,1.22h-11.66c-1.16,0-2.14-.41-2.95-1.22-.81-.81-1.22-1.79-1.22-2.95v-7.92c0-1.02,.4-1.88,1.22-2.6,.81-.72,1.79-1.08,2.95-1.08h11.66c1.11,0,2.08,.37,2.92,1.11,.83,.74,1.25,1.6,1.25,2.57h7.29v-3.68c0-1.9-.71-3.51-2.12-4.83-1.41-1.32-3.14-1.98-5.17-1.98Z"/><path class="uuid-e1044ee3-f4c5-4451-9f28-1758e4136712" d="M219.01,252.8l-13.22,29.37h8.12l2.5-5.55h16.66l2.5,5.55h8.05l-13.19-29.37h-11.42Zm.03,17.91l5.64-12.6,5.74,12.62-11.38-.02Z"/><polygon class="uuid-e1044ee3-f4c5-4451-9f28-1758e4136712" points="274.79 276.48 260.01 252.8 247.51 252.8 247.51 282.17 254.8 282.17 254.8 258.62 269.43 282.18 282.08 282.17 282.08 252.8 274.79 252.8 274.79 276.48"/><polygon class="uuid-e1044ee3-f4c5-4451-9f28-1758e4136712" points="313.95 282.17 341.65 282.17 341.65 275.37 321.24 275.37 321.24 270.3 340.47 270.3 340.47 264.4 321.24 264.4 321.24 259.61 341.65 259.61 341.65 252.8 313.95 252.8 313.95 282.17"/><path class="uuid-e1044ee3-f4c5-4451-9f28-1758e4136712" d="M358.14,252.8l-13.22,29.37h8.12l2.5-5.55h16.66l2.5,5.55h8.05l-13.19-29.37h-11.42Zm.03,17.91l5.64-12.6,5.74,12.62-11.38-.02Z"/><path class="uuid-e1044ee3-f4c5-4451-9f28-1758e4136712" d="M411.08,252.8h-17.15c-2.04,0-3.76,.66-5.17,1.98-1.41,1.32-2.12,2.93-2.12,4.83v15.76c0,1.9,.71,3.51,2.12,4.82,1.41,1.32,3.14,1.98,5.17,1.98h17.15c2.22,0,4.12-.67,5.69-2.01,1.57-1.34,2.36-2.94,2.36-4.79v-10.07h-17.01v5.9h9.72c0,1.11-.27,2.08-.8,2.92-.53,.83-1.15,1.25-1.84,1.25h-11.11c-1.16,0-2.14-.41-2.95-1.22s-1.22-1.79-1.22-2.95v-7.92c0-1.02,.4-1.88,1.22-2.6,.81-.72,1.79-1.08,2.95-1.08h11.25c.69,0,1.28,.27,1.77,.8,.49,.53,.73,1.17,.73,1.91h7.29v-2.71c0-1.9-.77-3.51-2.33-4.83-1.55-1.32-3.46-1.98-5.73-1.98Z"/><polygon class="uuid-e1044ee3-f4c5-4451-9f28-1758e4136712" points="430.1 252.8 422.81 252.8 422.81 282.17 449.06 282.17 449.06 275.37 430.1 275.37 430.1 252.8"/><polygon class="uuid-e1044ee3-f4c5-4451-9f28-1758e4136712" points="453.43 282.17 481.13 282.17 481.13 275.37 460.72 275.37 460.72 270.3 479.95 270.3 479.95 264.4 460.72 264.4 460.72 259.61 481.13 259.61 481.13 252.8 453.43 252.8 453.43 282.17"/><path class="uuid-e1044ee3-f4c5-4451-9f28-1758e4136712" d="M535.01,264.12l-14.16-.49c-.74,0-1.18-.18-1.32-.56-.14-.37-.21-1.02-.21-1.94,0-.69,.18-1.27,.56-1.73,.37-.46,.83-.69,1.39-.69h10c1.94,0,2.92,.93,2.92,2.78h7.29v-2.78c0-1.62-.56-3.01-1.67-4.17-1.11-1.16-2.45-1.74-4.03-1.74h-16.45c-2.04,0-3.76,.57-5.17,1.7-1.41,1.14-2.12,2.54-2.12,4.2v4.51c0,2.08,.59,3.78,1.77,5.1,1.18,1.32,3.02,1.98,5.52,1.98l13.12,.56c.7,0,1.3,.25,1.81,.76,.51,.51,.76,1.11,.76,1.81,0,.74-.36,1.4-1.08,1.98-.72,.58-1.56,.87-2.53,.87h-10c-.6,0-1.1-.31-1.49-.94-.39-.63-.59-1.4-.59-2.33l-7.29-.21v3.47c0,1.62,.72,3.01,2.15,4.16,1.43,1.16,3.15,1.74,5.14,1.74h13.95c3.06,0,5.32-.66,6.8-1.98,1.48-1.32,2.22-3.88,2.22-7.67,0-3.15-.66-5.34-1.98-6.56-1.32-1.22-3.09-1.84-5.31-1.84Z"/><path class="uuid-e1044ee3-f4c5-4451-9f28-1758e4136712" d="M573.33,252.8h-20c-2.08,0-3.82,.72-5.21,2.15-1.39,1.44-2.08,3.19-2.08,5.28v14.51c0,1.99,.72,3.73,2.15,5.21,1.43,1.48,3.15,2.22,5.14,2.22h20c2.08,0,3.82-.74,5.21-2.22,1.39-1.48,2.08-3.26,2.08-5.34v-14.37c0-2.04-.71-3.78-2.12-5.24-1.41-1.46-3.14-2.19-5.17-2.19Zm0,18.54c0,.93-.31,1.72-.94,2.39-.63,.67-1.38,1.01-2.26,1.01h-13.68c-.83,0-1.56-.33-2.19-1.01-.63-.67-.94-1.47-.94-2.39v-7.92c0-.93,.3-1.69,.9-2.29,.6-.6,1.34-.9,2.22-.9h13.68c.88,0,1.63,.31,2.26,.94,.62,.63,.94,1.38,.94,2.26v7.92Z"/><polygon class="uuid-e1044ee3-f4c5-4451-9f28-1758e4136712" points="591.66 252.8 584.37 252.8 584.37 282.17 610.61 282.17 610.61 275.37 591.66 275.37 591.66 252.8"/><path class="uuid-e1044ee3-f4c5-4451-9f28-1758e4136712" d="M639.56,271.2c0,1.16-.41,2.14-1.22,2.95-.81,.81-1.79,1.22-2.95,1.22h-9.72c-1.16,0-2.14-.41-2.95-1.22-.81-.81-1.22-1.79-1.22-2.95v-18.4h-7.29v22.57c0,1.9,.71,3.51,2.12,4.82,1.41,1.32,3.13,1.98,5.17,1.98h18.05c1.99,0,3.7-.67,5.14-2.01,1.43-1.34,2.15-2.94,2.15-4.79v-22.57h-7.29v18.4Z"/><polygon class="uuid-e1044ee3-f4c5-4451-9f28-1758e4136712" points="650.12 260.72 661.43 260.72 661.43 282.17 669.7 282.17 669.7 260.72 680.94 260.72 680.94 252.8 650.12 252.8 650.12 260.72"/><rect class="uuid-e1044ee3-f4c5-4451-9f28-1758e4136712" x="685.39" y="252.8" width="7.29" height="29.37"/><path class="uuid-e1044ee3-f4c5-4451-9f28-1758e4136712" d="M723.57,252.8h-20c-2.08,0-3.82,.72-5.21,2.15-1.39,1.44-2.08,3.19-2.08,5.28v14.51c0,1.99,.72,3.73,2.15,5.21,1.43,1.48,3.15,2.22,5.14,2.22h20c2.08,0,3.82-.74,5.21-2.22,1.39-1.48,2.08-3.26,2.08-5.34v-14.37c0-2.04-.71-3.78-2.12-5.24s-3.14-2.19-5.17-2.19Zm0,18.54c0,.93-.31,1.72-.94,2.39-.63,.67-1.38,1.01-2.26,1.01h-13.68c-.83,0-1.56-.33-2.19-1.01-.62-.67-.94-1.47-.94-2.39v-7.92c0-.93,.3-1.69,.9-2.29,.6-.6,1.34-.9,2.22-.9h13.68c.88,0,1.63,.31,2.26,.94,.62,.63,.94,1.38,.94,2.26v7.92Z"/><polygon class="uuid-e1044ee3-f4c5-4451-9f28-1758e4136712" points="762.31 276.48 747.53 252.8 735.03 252.8 735.03 282.17 742.32 282.17 742.32 258.62 756.95 282.18 769.6 282.17 769.6 252.8 762.31 252.8 762.31 276.48"/><path class="uuid-e1044ee3-f4c5-4451-9f28-1758e4136712" d="M796.61,264.12l-14.16-.49c-.74,0-1.18-.18-1.32-.56-.14-.37-.21-1.02-.21-1.94,0-.69,.18-1.27,.56-1.73,.37-.46,.83-.69,1.39-.69h10c1.94,0,2.92,.93,2.92,2.78h7.29v-2.78c0-1.62-.55-3.01-1.67-4.17-1.11-1.16-2.45-1.74-4.03-1.74h-16.45c-2.04,0-3.76,.57-5.17,1.7-1.41,1.14-2.12,2.54-2.12,4.2v4.51c0,2.08,.59,3.78,1.77,5.1,1.18,1.32,3.02,1.98,5.52,1.98l13.12,.56c.69,0,1.29,.25,1.81,.76,.51,.51,.76,1.11,.76,1.81,0,.74-.36,1.4-1.08,1.98-.72,.58-1.56,.87-2.53,.87h-10c-.6,0-1.1-.31-1.49-.94-.39-.63-.59-1.4-.59-2.33l-7.29-.21v3.47c0,1.62,.72,3.01,2.15,4.16,1.43,1.16,3.15,1.74,5.14,1.74h13.96c3.05,0,5.32-.66,6.8-1.98,1.48-1.32,2.22-3.88,2.22-7.67,0-3.15-.66-5.34-1.98-6.56-1.32-1.22-3.09-1.84-5.31-1.84Z"/><path class="uuid-e1044ee3-f4c5-4451-9f28-1758e4136712" d="M152.55,159.79c-12.58,0-27.36,0-37.43,.63,5.66-7.55,14.47-20.44,21.39-30.51l37.74-55.67,98.77,139.65h77.06L215.14,23.59C206.34,11.32,193.44,0,173,0s-32.4,10.38-41.52,23.59L0,213.89H244.71l-39.32-54.1h-52.84Z"/><path class="uuid-e1044ee3-f4c5-4451-9f28-1758e4136712" d="M803.9,145.01c0-38.37-27.68-57.56-78.93-57.56h-114.49c-15.1,0-22.33-4.08-22.33-14.78s7.23-14.47,22.33-14.47h145.95L798.25,3.47h-182.75c-63.85,0-90.26,25.78-90.26,65.42,0,.34,0,.71,.02,1.05,.08,6.42,.96,12.48,2.66,18.06,7.74,25.34,32.38,41.27,76.25,41.27h114.49c15.41,0,22.35,4.41,22.35,15.1s-6.94,15.41-22.35,15.41h-174.91l-41.84,54.09h211.73c64.16,0,90.26-25.78,90.26-68.87Z"/><polygon class="uuid-e1044ee3-f4c5-4451-9f28-1758e4136712" points="347.83 159.78 347.83 131.16 477.09 131.16 514.53 83.37 347.83 83.37 347.83 58.2 484.01 58.2 526.16 3.47 468.58 3.47 463.86 3.47 433.63 3.47 428.61 3.47 410.13 3.47 282.41 3.47 282.41 95.26 366.55 213.88 484.95 213.88 526.79 159.78 347.83 159.78"/></svg>