<?xml version="1.0" encoding="UTF-8" standalone="no"?>
<!DOCTYPE svg PUBLIC "-//W3C//DTD SVG 1.1//EN" "http://www.w3.org/Graphics/SVG/1.1/DTD/svg11.dtd">
<svg width="100%" height="100%" viewBox="0 0 1485 1486" version="1.1" xmlns="http://www.w3.org/2000/svg" xmlns:xlink="http://www.w3.org/1999/xlink" xml:space="preserve" xmlns:serif="http://www.serif.com/" style="fill-rule:evenodd;clip-rule:evenodd;stroke-linejoin:round;stroke-miterlimit:2;">
    <g transform="matrix(1,0,0,1,-882.712,-642.358)">
        <g>
            <g transform="matrix(0.361377,0,0,0.32336,979.116,494.096)">
                <g>
                    <g transform="matrix(1.19263,0,0,1.19263,135.253,-172.163)">
                        <path d="M637.399,803.281C637.361,801.465 637.341,799.645 637.341,797.82C637.341,658.988 750.055,546.274 888.887,546.274C1027.72,546.274 1140.43,658.988 1140.43,797.82C1140.43,799.645 1140.41,801.465 1140.37,803.281C1140.41,804.563 1140.43,805.85 1140.43,807.141L1140.43,1109.38C1140.43,1178.8 1084.08,1235.15 1014.66,1235.15L763.114,1235.15C693.698,1235.15 637.341,1178.8 637.341,1109.38L637.341,807.141C637.341,805.85 637.361,804.563 637.399,803.281Z" style="fill:rgb(235,235,235);fill-opacity:0;"/>
                    </g>
                    <g transform="matrix(1.19263,0,0,1.19263,135.253,-172.163)">
                        <path d="M705.762,1240.66C655.22,1218.53 619.873,1168.05 619.873,1109.38L619.873,807.141C619.873,805.826 619.891,804.516 619.926,803.21L619.926,803.199C619.891,801.41 619.873,799.617 619.873,797.82C619.873,649.347 740.414,528.806 888.887,528.806C1037.36,528.806 1157.9,649.347 1157.9,797.82C1157.9,799.621 1157.88,801.419 1157.85,803.203C1157.88,804.511 1157.9,805.824 1157.9,807.141L1157.9,1109.38C1157.9,1168.05 1122.55,1218.53 1072.01,1240.66L1072.01,1445.53C1072.01,1455.17 1064.18,1463 1054.54,1463C1044.9,1463 1037.07,1455.17 1037.07,1445.53L1037.07,1354.91L740.699,1354.91L740.699,1443.78C740.699,1453.42 732.872,1461.25 723.231,1461.25C713.59,1461.25 705.762,1453.42 705.762,1443.78L705.762,1240.66ZM1038.86,1214.96C1087,1203.96 1122.96,1160.84 1122.96,1109.38L1122.96,807.141C1122.96,806.026 1122.95,804.915 1122.91,803.808C1122.9,803.508 1122.9,803.208 1122.91,802.908C1122.94,801.216 1122.96,799.52 1122.96,797.82C1122.96,668.629 1018.08,563.743 888.887,563.743C759.696,563.743 654.81,668.629 654.81,797.82C654.81,799.52 654.828,801.216 654.864,802.908C654.87,803.208 654.869,803.508 654.86,803.808C654.826,804.915 654.81,806.026 654.81,807.141L654.81,1109.38C654.81,1160.84 690.773,1203.96 738.915,1214.96L1038.86,1214.96ZM676.362,822.836L676.363,822.822C676.336,821.44 676.322,820.054 676.322,818.666C676.322,701.349 771.569,606.102 888.887,606.102C1006.2,606.102 1101.45,701.349 1101.45,818.666C1101.45,820.059 1101.44,821.45 1101.41,822.823C1101.44,823.844 1101.45,824.868 1101.45,825.895L1101.45,1060.31C1101.45,1123.79 1049.91,1175.32 986.434,1175.32L791.339,1175.32C727.859,1175.32 676.322,1123.79 676.322,1060.31L676.322,825.895C676.322,824.873 676.336,823.853 676.362,822.836ZM711.296,823.429C711.272,824.248 711.259,825.07 711.259,825.895L711.259,1060.31C711.259,1104.51 747.142,1140.39 791.339,1140.39L986.434,1140.39C1030.63,1140.39 1066.51,1104.51 1066.51,1060.31L1066.51,825.895C1066.51,825.07 1066.5,824.248 1066.48,823.429C1066.47,823.129 1066.47,822.829 1066.47,822.529C1066.5,821.244 1066.51,819.957 1066.51,818.666C1066.51,720.631 986.922,641.039 888.887,641.039C790.851,641.039 711.259,720.631 711.259,818.666C711.259,819.957 711.273,821.244 711.3,822.529C711.307,822.829 711.305,823.129 711.296,823.429ZM740.699,1250.86C740.699,1259.24 740.699,1319.97 740.699,1319.97C806.69,1319.97 1037.07,1319.97 1037.07,1319.97L1037.07,1250.87C1029.77,1252.02 1022.28,1252.62 1014.66,1252.62L763.114,1252.62C755.489,1252.62 748.003,1252.02 740.699,1250.86Z"/>
                    </g>
                    <g transform="matrix(0.924989,0,0,0.924989,373.154,66.2267)">
                        <path d="M637.399,803.281C637.361,801.465 637.341,799.645 637.341,797.82C637.341,658.988 750.055,546.274 888.887,546.274C1027.72,546.274 1140.43,658.988 1140.43,797.82C1140.43,799.645 1140.41,801.465 1140.37,803.281C1140.41,804.563 1140.43,805.85 1140.43,807.141L1140.43,1109.38C1140.43,1178.8 1084.08,1235.15 1014.66,1235.15L763.114,1235.15C693.698,1235.15 637.341,1178.8 637.341,1109.38L637.341,807.141C637.341,805.85 637.361,804.563 637.399,803.281Z" style="fill:rgb(235,235,235);fill-opacity:0;"/>
                    </g>
                </g>
                <g transform="matrix(1.06878,0,0,1.06878,616.88,-204.474)">
                    <path d="M428.98,1189.98L428.98,1225.07C428.98,1234.75 421.119,1242.61 411.436,1242.61L376.349,1242.61C366.667,1242.61 358.806,1234.75 358.806,1225.07L358.806,1189.98C358.806,1180.3 366.667,1172.44 376.349,1172.44L411.436,1172.44C421.119,1172.44 428.98,1180.3 428.98,1189.98Z"/>
                </g>
                <g transform="matrix(1.06878,0,0,1.06878,721.88,-204.474)">
                    <path d="M428.98,1189.98L428.98,1225.07C428.98,1234.75 421.119,1242.61 411.436,1242.61L376.349,1242.61C366.667,1242.61 358.806,1234.75 358.806,1225.07L358.806,1189.98C358.806,1180.3 366.667,1172.44 376.349,1172.44L411.436,1172.44C421.119,1172.44 428.98,1180.3 428.98,1189.98Z"/>
                </g>
                <g transform="matrix(1.06878,0,0,1.06878,931.88,-204.474)">
                    <path d="M428.98,1189.98L428.98,1225.07C428.98,1234.75 421.119,1242.61 411.436,1242.61L376.349,1242.61C366.667,1242.61 358.806,1234.75 358.806,1225.07L358.806,1189.98C358.806,1180.3 366.667,1172.44 376.349,1172.44L411.436,1172.44C421.119,1172.44 428.98,1180.3 428.98,1189.98Z"/>
                </g>
                <g transform="matrix(1.06878,0,0,1.06878,826.88,-204.474)">
                    <path d="M428.98,1189.98L428.98,1225.07C428.98,1234.75 421.119,1242.61 411.436,1242.61L376.349,1242.61C366.667,1242.61 358.806,1234.75 358.806,1225.07L358.806,1189.98C358.806,1180.3 366.667,1172.44 376.349,1172.44L411.436,1172.44C421.119,1172.44 428.98,1180.3 428.98,1189.98Z"/>
                </g>
                <g transform="matrix(1.06878,0,0,1.06878,616.88,-309.474)">
                    <path d="M428.98,1189.98L428.98,1225.07C428.98,1234.75 421.119,1242.61 411.436,1242.61L376.349,1242.61C366.667,1242.61 358.806,1234.75 358.806,1225.07L358.806,1189.98C358.806,1180.3 366.667,1172.44 376.349,1172.44L411.436,1172.44C421.119,1172.44 428.98,1180.3 428.98,1189.98Z"/>
                </g>
                <g transform="matrix(1.06878,0,0,1.06878,721.88,-309.474)">
                    <path d="M428.98,1189.98L428.98,1225.07C428.98,1234.75 421.119,1242.61 411.436,1242.61L376.349,1242.61C366.667,1242.61 358.806,1234.75 358.806,1225.07L358.806,1189.98C358.806,1180.3 366.667,1172.44 376.349,1172.44L411.436,1172.44C421.119,1172.44 428.98,1180.3 428.98,1189.98Z"/>
                </g>
                <g transform="matrix(1.06878,0,0,1.06878,931.88,-309.474)">
                    <path d="M428.98,1189.98L428.98,1225.07C428.98,1234.75 421.119,1242.61 411.436,1242.61L376.349,1242.61C366.667,1242.61 358.806,1234.75 358.806,1225.07L358.806,1189.98C358.806,1180.3 366.667,1172.44 376.349,1172.44L411.436,1172.44C421.119,1172.44 428.98,1180.3 428.98,1189.98Z"/>
                </g>
                <g transform="matrix(1.06878,0,0,1.06878,826.88,-309.474)">
                    <path d="M428.98,1189.98L428.98,1225.07C428.98,1234.75 421.119,1242.61 411.436,1242.61L376.349,1242.61C366.667,1242.61 358.806,1234.75 358.806,1225.07L358.806,1189.98C358.806,1180.3 366.667,1172.44 376.349,1172.44L411.436,1172.44C421.119,1172.44 428.98,1180.3 428.98,1189.98Z"/>
                </g>
                <g transform="matrix(1.06878,0,0,1.06878,616.88,-414.474)">
                    <path d="M428.98,1189.98L428.98,1225.07C428.98,1234.75 421.119,1242.61 411.436,1242.61L376.349,1242.61C366.667,1242.61 358.806,1234.75 358.806,1225.07L358.806,1189.98C358.806,1180.3 366.667,1172.44 376.349,1172.44L411.436,1172.44C421.119,1172.44 428.98,1180.3 428.98,1189.98Z"/>
                </g>
                <g transform="matrix(1.06878,0,0,1.06878,721.88,-414.474)">
                    <path d="M428.98,1189.98L428.98,1225.07C428.98,1234.75 421.119,1242.61 411.436,1242.61L376.349,1242.61C366.667,1242.61 358.806,1234.75 358.806,1225.07L358.806,1189.98C358.806,1180.3 366.667,1172.44 376.349,1172.44L411.436,1172.44C421.119,1172.44 428.98,1180.3 428.98,1189.98Z"/>
                </g>
                <g transform="matrix(1.06878,0,0,1.06878,931.88,-414.474)">
                    <path d="M428.98,1189.98L428.98,1225.07C428.98,1234.75 421.119,1242.61 411.436,1242.61L376.349,1242.61C366.667,1242.61 358.806,1234.75 358.806,1225.07L358.806,1189.98C358.806,1180.3 366.667,1172.44 376.349,1172.44L411.436,1172.44C421.119,1172.44 428.98,1180.3 428.98,1189.98Z"/>
                </g>
                <g transform="matrix(1.06878,0,0,1.06878,826.88,-414.474)">
                    <path d="M428.98,1189.98L428.98,1225.07C428.98,1234.75 421.119,1242.61 411.436,1242.61L376.349,1242.61C366.667,1242.61 358.806,1234.75 358.806,1225.07L358.806,1189.98C358.806,1180.3 366.667,1172.44 376.349,1172.44L411.436,1172.44C421.119,1172.44 428.98,1180.3 428.98,1189.98Z"/>
                </g>
                <g transform="matrix(1.06878,0,0,1.06878,616.88,-519.474)">
                    <path d="M428.98,1189.98L428.98,1225.07C428.98,1234.75 421.119,1242.61 411.436,1242.61L376.349,1242.61C366.667,1242.61 358.806,1234.75 358.806,1225.07L358.806,1189.98C358.806,1180.3 366.667,1172.44 376.349,1172.44L411.436,1172.44C421.119,1172.44 428.98,1180.3 428.98,1189.98Z"/>
                </g>
                <g transform="matrix(1.06878,0,0,1.06878,721.88,-519.474)">
                    <path d="M428.98,1189.98L428.98,1225.07C428.98,1234.75 421.119,1242.61 411.436,1242.61L376.349,1242.61C366.667,1242.61 358.806,1234.75 358.806,1225.07L358.806,1189.98C358.806,1180.3 366.667,1172.44 376.349,1172.44L411.436,1172.44C421.119,1172.44 428.98,1180.3 428.98,1189.98Z"/>
                </g>
                <g transform="matrix(1.06878,0,0,1.06878,931.88,-519.474)">
                    <path d="M428.98,1189.98L428.98,1225.07C428.98,1234.75 421.119,1242.61 411.436,1242.61L376.349,1242.61C366.667,1242.61 358.806,1234.75 358.806,1225.07L358.806,1189.98C358.806,1180.3 366.667,1172.44 376.349,1172.44L411.436,1172.44C421.119,1172.44 428.98,1180.3 428.98,1189.98Z"/>
                </g>
                <g transform="matrix(1.06878,0,0,1.06878,826.88,-519.474)">
                    <path d="M428.98,1189.98L428.98,1225.07C428.98,1234.75 421.119,1242.61 411.436,1242.61L376.349,1242.61C366.667,1242.61 358.806,1234.75 358.806,1225.07L358.806,1189.98C358.806,1180.3 366.667,1172.44 376.349,1172.44L411.436,1172.44C421.119,1172.44 428.98,1180.3 428.98,1189.98Z"/>
                </g>
            </g>
            <g transform="matrix(0.296238,0,0,0.296238,386.019,957.482)">
                <path d="M2034.79,700.406L1924.95,1052.88L2098,1043.67C2106.17,1043.24 2113.83,1047.62 2117.6,1054.88C2121.37,1062.14 2120.54,1070.93 2115.49,1077.36L1718.2,1582.61C1711.77,1590.78 1700.31,1592.96 1691.33,1587.73C1682.35,1582.5 1678.6,1571.44 1682.54,1561.83L1832.37,1196.25L1698.04,1199.74C1690.3,1199.94 1683.08,1195.83 1679.31,1189.06C1675.53,1182.29 1675.83,1173.99 1680.07,1167.5L1997.47,682.794C2003.17,674.1 2014.4,670.931 2023.79,675.367C2033.19,679.802 2037.88,690.484 2034.79,700.406ZM1950.65,830.354L1736.72,1157.06L1863.22,1153.77C1870.26,1153.59 1876.91,1156.97 1880.91,1162.77C1884.91,1168.56 1885.71,1175.98 1883.04,1182.5L1777.69,1439.53L2054.33,1087.72L1897.25,1096.08C1890.44,1096.44 1883.89,1093.45 1879.7,1088.06C1875.52,1082.68 1874.23,1075.59 1876.26,1069.08L1950.65,830.354Z"/>
            </g>
            <g transform="matrix(0.341229,0,0,0.341229,727.335,1237.25)">
                <path d="M1149.83,2588.87L1149.83,1535.18C1149.83,1523.68 1159.15,1514.35 1170.66,1514.35L2157.41,1514.35C2168.91,1514.35 2178.24,1523.68 2178.24,1535.18L2178.24,2588.87C2178.24,2600.37 2168.91,2609.7 2157.41,2609.7L1170.66,2609.7C1159.15,2609.7 1149.83,2600.37 1149.83,2588.87ZM2136.58,1777.77L2136.58,1556.02L1191.49,1556.02L1191.49,1777.77L1249.15,1777.77L1249.15,1615.07C1249.15,1603.57 1258.48,1594.24 1269.98,1594.24L1464.31,1594.24C1475.82,1594.24 1485.14,1603.57 1485.14,1615.07L1485.14,1777.77L1596.78,1777.77L1596.78,1706.84C1596.78,1695.33 1606.11,1686 1617.61,1686L1734.21,1686C1745.71,1686 1755.04,1695.33 1755.04,1706.84L1755.04,1777.77L1821.33,1777.77L1821.33,1615.07C1821.33,1603.57 1830.66,1594.24 1842.17,1594.24L1930.69,1594.24C1942.2,1594.24 1951.53,1603.57 1951.53,1615.07L1951.53,1777.77L2022.14,1777.77L2022.14,1706.84C2022.14,1695.33 2031.47,1686 2042.97,1686L2107.75,1686C2119.25,1686 2128.58,1695.33 2128.58,1706.84L2128.58,1777.77L2136.58,1777.77ZM2136.58,2041.19L2136.58,1819.44L1191.49,1819.44L1191.49,2041.19L1229.72,2041.19L1229.72,1876.33C1229.72,1864.83 1239.04,1855.5 1250.55,1855.5L1703.98,1855.5C1715.49,1855.5 1724.81,1864.83 1724.81,1876.33L1724.81,2041.19L1758.72,2041.19L1758.72,1930.31C1758.72,1918.81 1768.05,1909.48 1779.55,1909.48L2075.36,1909.48C2086.87,1909.48 2096.19,1918.81 2096.19,1930.31L2096.19,2041.19L2136.58,2041.19ZM2136.58,2304.61L2136.58,2082.86L1191.49,2082.86L1191.49,2304.61L1229.72,2304.61L1229.72,2161.35C1229.72,2149.84 1239.04,2140.51 1250.55,2140.51L1438.4,2140.51C1449.91,2140.51 1459.23,2149.84 1459.23,2161.35L1459.23,2304.61L1497.46,2304.61L1497.46,2161.35C1497.46,2149.84 1506.78,2140.51 1518.29,2140.51L1703.98,2140.51C1715.49,2140.51 1724.81,2149.84 1724.81,2161.35L1724.81,2304.61L1791.11,2304.61L1791.11,2193.73C1791.11,2182.23 1800.43,2172.9 1811.94,2172.9L1927.46,2172.9C1938.96,2172.9 1948.29,2182.23 1948.29,2193.73L1948.29,2304.61L1976.8,2304.61L1976.8,2193.73C1976.8,2182.23 1986.12,2172.9 1997.63,2172.9L2109.91,2172.9C2121.41,2172.9 2130.74,2182.23 2130.74,2193.73L2130.74,2304.61L2136.58,2304.61ZM2074.6,2568.03L2136.58,2568.03L2136.58,2346.28L1191.49,2346.28L1191.49,2568.03L1344.15,2568.03L1344.15,2409.65C1344.15,2398.15 1353.48,2388.82 1364.99,2388.82L1664.04,2388.82C1675.54,2388.82 1684.87,2398.15 1684.87,2409.65L1684.87,2568.03L1873.15,2568.03L1873.15,2457.16C1873.15,2445.65 1882.48,2436.32 1893.99,2436.32L2053.77,2436.32C2065.27,2436.32 2074.6,2445.65 2074.6,2457.16L2074.6,2568.03ZM1914.82,2568.03L2032.93,2568.03L2032.93,2477.99L1914.82,2477.99L1914.82,2568.03ZM1385.82,2568.03L1643.2,2568.03L1643.2,2430.49L1385.82,2430.49C1385.82,2430.49 1385.82,2568.03 1385.82,2568.03ZM2063.8,1777.77L2086.91,1777.77L2086.91,1727.67L2063.8,1727.67L2063.8,1777.77ZM1443.48,1777.77L1443.48,1635.9C1443.48,1635.9 1290.82,1635.9 1290.82,1635.9L1290.82,1777.77L1443.48,1777.77ZM1713.38,1777.77L1713.38,1727.67L1638.45,1727.67L1638.45,1777.77L1713.38,1777.77ZM1909.86,1777.77L1909.86,1635.9L1863,1635.9C1863,1635.9 1863,1777.77 1863,1777.77L1909.86,1777.77ZM1800.38,2041.19L2054.53,2041.19L2054.53,1951.15L1800.38,1951.15C1800.38,1951.15 1800.38,2041.19 1800.38,2041.19ZM1683.15,2041.19L1683.15,1897.17C1683.15,1897.17 1271.38,1897.17 1271.38,1897.17L1271.38,2041.19L1683.15,2041.19ZM2018.46,2304.61L2089.07,2304.61L2089.07,2214.57L2018.46,2214.57C2018.46,2214.57 2018.46,2304.61 2018.46,2304.61ZM1417.57,2304.61L1417.57,2182.18L1271.38,2182.18C1271.38,2182.18 1271.38,2304.61 1271.38,2304.61L1417.57,2304.61ZM1683.15,2304.61L1683.15,2182.18L1539.12,2182.18C1539.12,2182.18 1539.12,2304.61 1539.12,2304.61L1683.15,2304.61ZM1906.62,2304.61L1906.62,2214.57L1832.77,2214.57C1832.77,2214.57 1832.77,2304.61 1832.77,2304.61L1906.62,2304.61Z"/>
            </g>
            <g transform="matrix(0.309895,0,0,0.309895,1870.43,1168.27)">
                <path d="M1001.6,2347.8L1064.86,2347.8C1076.37,2347.8 1085.69,2357.12 1085.69,2368.63L1085.69,2472.27C1085.69,2483.78 1076.37,2493.1 1064.86,2493.1L477.561,2493.1C466.055,2493.1 456.728,2483.78 456.728,2472.27L456.728,2368.63C456.728,2357.12 466.055,2347.8 477.561,2347.8L540.826,2347.8C512.942,2320.84 495.593,2283.05 495.593,2241.24L495.593,1535.18C495.593,1453.37 562.011,1386.96 643.819,1386.96L898.603,1386.96C980.411,1386.96 1046.83,1453.37 1046.83,1535.18L1046.83,1730.27L1212.77,1730.27C1224.27,1730.27 1233.6,1739.6 1233.6,1751.1L1233.6,2235.52L1351.71,2235.52L1351.71,1726.36C1311.36,1716.92 1281.26,1680.68 1281.26,1637.47L1281.26,1555.68C1281.26,1544.17 1290.59,1534.85 1302.09,1534.85L1307.17,1534.85L1307.17,1453.65C1307.17,1442.15 1316.51,1432.81 1328.01,1432.81C1339.51,1432.81 1348.84,1442.15 1348.84,1453.65L1348.84,1534.85L1396.25,1534.85L1396.25,1453.65C1396.25,1442.15 1405.58,1432.81 1417.08,1432.81C1428.58,1432.81 1437.92,1442.15 1437.92,1453.65L1437.92,1534.85L1443,1534.85C1454.5,1534.85 1463.83,1544.17 1463.83,1555.68L1463.83,1637.47C1463.83,1680.68 1433.73,1716.92 1393.38,1726.36L1393.38,2256.35C1393.38,2267.86 1384.05,2277.18 1372.54,2277.18L1212.77,2277.18C1201.26,2277.18 1191.93,2267.86 1191.93,2256.35L1191.93,1771.93L1046.83,1771.93L1046.83,2241.24C1046.83,2283.05 1029.48,2320.84 1001.6,2347.8ZM643.819,2389.46L498.395,2389.46L498.395,2451.44L1044.03,2451.44L1044.03,2389.46L643.819,2389.46ZM898.603,2347.8C957.414,2347.8 1005.16,2300.05 1005.16,2241.24L1005.16,1535.18C1005.16,1476.37 957.414,1428.62 898.603,1428.62L643.819,1428.62C585.007,1428.62 537.26,1476.37 537.26,1535.18L537.26,2241.24C537.26,2300.05 585.007,2347.8 643.819,2347.8L898.603,2347.8ZM1328.01,1576.51C1324.79,1576.51 1322.93,1576.51 1322.93,1576.51L1322.93,1637.47C1322.93,1664.85 1345.16,1687.08 1372.54,1687.08C1399.93,1687.08 1422.16,1664.85 1422.16,1637.47L1422.16,1576.51C1422.16,1576.51 1420.3,1576.51 1417.08,1576.51C1400.05,1576.51 1345.04,1576.51 1328.01,1576.51ZM959.381,1566.49L959.381,1689.56C959.381,1735.03 922.472,1771.93 877.011,1771.93L665.411,1771.93C619.949,1771.93 583.041,1735.03 583.041,1689.56L583.041,1566.49C583.041,1521.03 619.949,1484.12 665.411,1484.12L877.011,1484.12C922.472,1484.12 959.381,1521.03 959.381,1566.49ZM917.715,1566.49C917.715,1544.03 899.476,1525.79 877.011,1525.79L665.411,1525.79C642.946,1525.79 624.707,1544.03 624.707,1566.49L624.707,1689.56C624.707,1712.03 642.946,1730.27 665.411,1730.27L877.011,1730.27C899.476,1730.27 917.715,1712.03 917.715,1689.56L917.715,1566.49Z"/>
            </g>
            <g transform="matrix(0.136969,0,0,0.136969,1840.23,769.478)">
                <path d="M2393.12,1371.17C2486.62,1371.17 2562.53,1447.09 2562.53,1540.59C2562.53,1634.09 2486.62,1710 2393.12,1710C2299.61,1710 2223.7,1634.09 2223.7,1540.59C2223.7,1447.09 2299.61,1371.17 2393.12,1371.17ZM2393.12,1454.51C2345.61,1454.51 2307.03,1493.08 2307.03,1540.59C2307.03,1588.1 2345.61,1626.67 2393.12,1626.67C2440.63,1626.67 2479.2,1588.1 2479.2,1540.59C2479.2,1493.08 2440.63,1454.51 2393.12,1454.51ZM2212.05,1489.85L2212.05,1591.33C2212.05,1614.34 2193.39,1633 2170.38,1633L982.829,1633C959.817,1633 941.162,1614.34 941.162,1591.33L941.162,1489.85C941.162,1466.84 959.817,1448.18 982.829,1448.18L2170.38,1448.18C2193.39,1448.18 2212.05,1466.84 2212.05,1489.85ZM2128.72,1531.51L1024.5,1531.51L1024.5,1549.66L2128.72,1549.66L2128.72,1531.51ZM3845.07,1489.85L3845.07,1591.33C3845.07,1614.34 3826.42,1633 3803.41,1633L2615.85,1633C2592.84,1633 2574.19,1614.34 2574.19,1591.33L2574.19,1489.85C2574.19,1466.84 2592.84,1448.18 2615.85,1448.18L3803.41,1448.18C3826.42,1448.18 3845.07,1466.84 3845.07,1489.85ZM3761.74,1531.51L2657.52,1531.51L2657.52,1549.66L3761.74,1549.66L3761.74,1531.51ZM2346.53,1358.41L2258.64,1409.15C2238.71,1420.65 2213.23,1413.83 2201.72,1393.9L1607.95,365.446C1596.44,345.517 1603.27,320.034 1623.2,308.528L1711.08,257.787C1731.01,246.281 1756.5,253.109 1768,273.038L2361.78,1301.49C2373.28,1321.42 2366.45,1346.9 2346.53,1358.41ZM2268.78,1307.07L1716.66,350.789L1700.95,359.864L2253.06,1316.15L2268.78,1307.07ZM3163.04,2772.65L3075.15,2823.39C3055.22,2834.89 3029.74,2828.07 3018.24,2808.14L2424.46,1779.69C2412.95,1759.76 2419.78,1734.28 2439.71,1722.77L2527.6,1672.03C2547.52,1660.52 2573.01,1667.35 2584.51,1687.28L3178.29,2715.73C3189.8,2735.66 3182.97,2761.14 3163.04,2772.65ZM3085.29,2721.31L2533.18,1765.03L2517.46,1774.1L3069.57,2730.39L3085.29,2721.31ZM2527.6,1409.15L2439.71,1358.41C2419.78,1346.9 2412.95,1321.42 2424.46,1301.49L3018.24,273.038C3029.74,253.109 3055.22,246.281 3075.15,257.787L3163.04,308.528C3182.97,320.034 3189.8,345.517 3178.29,365.446L2584.51,1393.9C2573.01,1413.83 2547.52,1420.65 2527.6,1409.15ZM2533.18,1316.15L3085.29,359.864L3069.57,350.789L2517.46,1307.07L2533.18,1316.15ZM1711.08,2823.39L1623.2,2772.65C1603.27,2761.14 1596.44,2735.66 1607.95,2715.73L2201.72,1687.28C2213.23,1667.35 2238.71,1660.52 2258.64,1672.03L2346.53,1722.77C2366.45,1734.28 2373.28,1759.76 2361.78,1779.69L1768,2808.14C1756.5,2828.07 1731.01,2834.89 1711.08,2823.39ZM1716.66,2730.39L2268.78,1774.1L2253.06,1765.03L1700.95,2721.31L1716.66,2730.39Z"/>
            </g>
            <path d="M1321.13,1433.66L1237.6,1433.66C1234.84,1433.66 1232.6,1431.43 1232.6,1428.67C1232.6,1428.67 1232.6,1297.81 1232.6,1297.81L1119.69,1297.81C1116.93,1297.81 1114.69,1295.57 1114.69,1292.81C1114.69,1290.06 1116.93,1287.82 1119.69,1287.82L1237.6,1287.82C1240.35,1287.82 1242.59,1290.06 1242.59,1292.81L1242.59,1423.67L1624.09,1423.67L1714.1,1423.67C1714.1,1409.03 1714.1,1364.38 1714.1,1319.26C1714.1,1262.76 1714.1,1205.5 1714.1,1205.5L1411.09,1205.5C1408.34,1205.5 1406.1,1203.27 1406.1,1200.51L1406.1,1002.63C1406.1,999.872 1408.34,997.633 1411.09,997.633C1413.85,997.633 1416.09,999.872 1416.09,1002.63C1416.09,1002.63 1416.09,1195.51 1416.09,1195.51L1719.09,1195.51C1721.85,1195.51 1724.09,1197.75 1724.09,1200.51L1724.09,1314.27L2163.02,1314.27L2163.02,1194.03C2163.02,1191.27 2165.26,1189.04 2168.01,1189.04C2170.77,1189.04 2173.01,1191.27 2173.01,1194.03L2173.01,1319.26C2173.01,1322.02 2170.77,1324.26 2168.01,1324.26L1724.09,1324.26L1724.09,1428.67C1724.09,1431.43 1721.85,1433.66 1719.09,1433.66L1629.09,1433.66L1629.09,1764.48L1969.14,1764.48C1971.9,1764.48 1974.14,1766.72 1974.14,1769.48C1974.14,1772.24 1971.9,1774.47 1969.14,1774.47L1624.09,1774.47C1621.33,1774.47 1619.1,1772.24 1619.1,1769.48L1619.1,1433.66L1331.12,1433.66L1331.12,1690.64C1331.12,1693.4 1328.88,1695.64 1326.12,1695.64C1323.37,1695.64 1321.13,1693.4 1321.13,1690.64L1321.13,1433.66Z"/>
        </g>
    </g>
</svg>
