<?xml version="1.0" encoding="UTF-8" standalone="no"?>
<!DOCTYPE svg PUBLIC "-//W3C//DTD SVG 1.1//EN" "http://www.w3.org/Graphics/SVG/1.1/DTD/svg11.dtd">
<svg width="100%" height="100%" viewBox="0 0 642 1115" version="1.1" xmlns="http://www.w3.org/2000/svg" xmlns:xlink="http://www.w3.org/1999/xlink" xml:space="preserve" xmlns:serif="http://www.serif.com/" style="fill-rule:evenodd;clip-rule:evenodd;stroke-linecap:round;stroke-linejoin:round;stroke-miterlimit:1.5;">
    <g transform="matrix(1,0,0,1,-874.531,-458.506)">
        <g>
            <g>
                <g transform="matrix(1.19263,0,0,1.19263,135.253,-172.163)">
                    <path d="M637.399,803.281C637.361,801.465 637.341,799.645 637.341,797.82C637.341,658.988 750.055,546.274 888.887,546.274C1027.72,546.274 1140.43,658.988 1140.43,797.82C1140.43,799.645 1140.41,801.465 1140.37,803.281C1140.41,804.563 1140.43,805.85 1140.43,807.141L1140.43,1109.38C1140.43,1178.8 1084.08,1235.15 1014.66,1235.15L763.114,1235.15C693.698,1235.15 637.341,1178.8 637.341,1109.38L637.341,807.141C637.341,805.85 637.361,804.563 637.399,803.281Z" style="fill:rgb(235,235,235);fill-opacity:0;stroke:black;stroke-width:34.94px;"/>
                </g>
                <g transform="matrix(0.924989,0,0,0.924989,373.154,66.2267)">
                    <path d="M637.399,803.281C637.361,801.465 637.341,799.645 637.341,797.82C637.341,658.988 750.055,546.274 888.887,546.274C1027.72,546.274 1140.43,658.988 1140.43,797.82C1140.43,799.645 1140.41,801.465 1140.37,803.281C1140.41,804.563 1140.43,805.85 1140.43,807.141L1140.43,1109.38C1140.43,1178.8 1084.08,1235.15 1014.66,1235.15L763.114,1235.15C693.698,1235.15 637.341,1178.8 637.341,1109.38L637.341,807.141C637.341,805.85 637.361,804.563 637.399,803.281Z" style="fill:rgb(235,235,235);fill-opacity:0;stroke:black;stroke-width:45.05px;"/>
                </g>
                <g transform="matrix(1.02809,0,0,0.591837,209.364,270.251)">
                    <rect x="766.892" y="1735.99" width="384.335" height="211.6" style="fill:rgb(235,235,235);fill-opacity:0;stroke:black;stroke-width:49.67px;"/>
                </g>
                <g transform="matrix(1,0,0,0.969231,4.54747e-13,-47.041)">
                    <path d="M1392.93,1509.27L1392.93,1649.62" style="fill:none;stroke:black;stroke-width:42.31px;"/>
                </g>
                <g transform="matrix(1,0,0,0.969231,4.54747e-13,-47.041)">
                    <path d="M997.798,1509.27L997.798,1647.46" style="fill:none;stroke:black;stroke-width:42.31px;"/>
                </g>
            </g>
            <g transform="matrix(1.06878,0,0,1.06878,616.88,-204.474)">
                <path d="M428.98,1189.98L428.98,1225.07C428.98,1234.75 421.119,1242.61 411.436,1242.61L376.349,1242.61C366.667,1242.61 358.806,1234.75 358.806,1225.07L358.806,1189.98C358.806,1180.3 366.667,1172.44 376.349,1172.44L411.436,1172.44C421.119,1172.44 428.98,1180.3 428.98,1189.98Z"/>
            </g>
            <g transform="matrix(1.06878,0,0,1.06878,721.88,-204.474)">
                <path d="M428.98,1189.98L428.98,1225.07C428.98,1234.75 421.119,1242.61 411.436,1242.61L376.349,1242.61C366.667,1242.61 358.806,1234.75 358.806,1225.07L358.806,1189.98C358.806,1180.3 366.667,1172.44 376.349,1172.44L411.436,1172.44C421.119,1172.44 428.98,1180.3 428.98,1189.98Z"/>
            </g>
            <g transform="matrix(1.06878,0,0,1.06878,931.88,-204.474)">
                <path d="M428.98,1189.98L428.98,1225.07C428.98,1234.75 421.119,1242.61 411.436,1242.61L376.349,1242.61C366.667,1242.61 358.806,1234.75 358.806,1225.07L358.806,1189.98C358.806,1180.3 366.667,1172.44 376.349,1172.44L411.436,1172.44C421.119,1172.44 428.98,1180.3 428.98,1189.98Z"/>
            </g>
            <g transform="matrix(1.06878,0,0,1.06878,826.88,-204.474)">
                <path d="M428.98,1189.98L428.98,1225.07C428.98,1234.75 421.119,1242.61 411.436,1242.61L376.349,1242.61C366.667,1242.61 358.806,1234.75 358.806,1225.07L358.806,1189.98C358.806,1180.3 366.667,1172.44 376.349,1172.44L411.436,1172.44C421.119,1172.44 428.98,1180.3 428.98,1189.98Z"/>
            </g>
            <g transform="matrix(1.06878,0,0,1.06878,616.88,-309.474)">
                <path d="M428.98,1189.98L428.98,1225.07C428.98,1234.75 421.119,1242.61 411.436,1242.61L376.349,1242.61C366.667,1242.61 358.806,1234.75 358.806,1225.07L358.806,1189.98C358.806,1180.3 366.667,1172.44 376.349,1172.44L411.436,1172.44C421.119,1172.44 428.98,1180.3 428.98,1189.98Z"/>
            </g>
            <g transform="matrix(1.06878,0,0,1.06878,721.88,-309.474)">
                <path d="M428.98,1189.98L428.98,1225.07C428.98,1234.75 421.119,1242.61 411.436,1242.61L376.349,1242.61C366.667,1242.61 358.806,1234.75 358.806,1225.07L358.806,1189.98C358.806,1180.3 366.667,1172.44 376.349,1172.44L411.436,1172.44C421.119,1172.44 428.98,1180.3 428.98,1189.98Z"/>
            </g>
            <g transform="matrix(1.06878,0,0,1.06878,931.88,-309.474)">
                <path d="M428.98,1189.98L428.98,1225.07C428.98,1234.75 421.119,1242.61 411.436,1242.61L376.349,1242.61C366.667,1242.61 358.806,1234.75 358.806,1225.07L358.806,1189.98C358.806,1180.3 366.667,1172.44 376.349,1172.44L411.436,1172.44C421.119,1172.44 428.98,1180.3 428.98,1189.98Z"/>
            </g>
            <g transform="matrix(1.06878,0,0,1.06878,826.88,-309.474)">
                <path d="M428.98,1189.98L428.98,1225.07C428.98,1234.75 421.119,1242.61 411.436,1242.61L376.349,1242.61C366.667,1242.61 358.806,1234.75 358.806,1225.07L358.806,1189.98C358.806,1180.3 366.667,1172.44 376.349,1172.44L411.436,1172.44C421.119,1172.44 428.98,1180.3 428.98,1189.98Z"/>
            </g>
            <g transform="matrix(1.06878,0,0,1.06878,616.88,-414.474)">
                <path d="M428.98,1189.98L428.98,1225.07C428.98,1234.75 421.119,1242.61 411.436,1242.61L376.349,1242.61C366.667,1242.61 358.806,1234.75 358.806,1225.07L358.806,1189.98C358.806,1180.3 366.667,1172.44 376.349,1172.44L411.436,1172.44C421.119,1172.44 428.98,1180.3 428.98,1189.98Z"/>
            </g>
            <g transform="matrix(1.06878,0,0,1.06878,721.88,-414.474)">
                <path d="M428.98,1189.98L428.98,1225.07C428.98,1234.75 421.119,1242.61 411.436,1242.61L376.349,1242.61C366.667,1242.61 358.806,1234.75 358.806,1225.07L358.806,1189.98C358.806,1180.3 366.667,1172.44 376.349,1172.44L411.436,1172.44C421.119,1172.44 428.98,1180.3 428.98,1189.98Z"/>
            </g>
            <g transform="matrix(1.06878,0,0,1.06878,931.88,-414.474)">
                <path d="M428.98,1189.98L428.98,1225.07C428.98,1234.75 421.119,1242.61 411.436,1242.61L376.349,1242.61C366.667,1242.61 358.806,1234.75 358.806,1225.07L358.806,1189.98C358.806,1180.3 366.667,1172.44 376.349,1172.44L411.436,1172.44C421.119,1172.44 428.98,1180.3 428.98,1189.98Z"/>
            </g>
            <g transform="matrix(1.06878,0,0,1.06878,826.88,-414.474)">
                <path d="M428.98,1189.98L428.98,1225.07C428.98,1234.75 421.119,1242.61 411.436,1242.61L376.349,1242.61C366.667,1242.61 358.806,1234.75 358.806,1225.07L358.806,1189.98C358.806,1180.3 366.667,1172.44 376.349,1172.44L411.436,1172.44C421.119,1172.44 428.98,1180.3 428.98,1189.98Z"/>
            </g>
            <g transform="matrix(1.06878,0,0,1.06878,616.88,-519.474)">
                <path d="M428.98,1189.98L428.98,1225.07C428.98,1234.75 421.119,1242.61 411.436,1242.61L376.349,1242.61C366.667,1242.61 358.806,1234.75 358.806,1225.07L358.806,1189.98C358.806,1180.3 366.667,1172.44 376.349,1172.44L411.436,1172.44C421.119,1172.44 428.98,1180.3 428.98,1189.98Z"/>
            </g>
            <g transform="matrix(1.06878,0,0,1.06878,721.88,-519.474)">
                <path d="M428.98,1189.98L428.98,1225.07C428.98,1234.75 421.119,1242.61 411.436,1242.61L376.349,1242.61C366.667,1242.61 358.806,1234.75 358.806,1225.07L358.806,1189.98C358.806,1180.3 366.667,1172.44 376.349,1172.44L411.436,1172.44C421.119,1172.44 428.98,1180.3 428.98,1189.98Z"/>
            </g>
            <g transform="matrix(1.06878,0,0,1.06878,931.88,-519.474)">
                <path d="M428.98,1189.98L428.98,1225.07C428.98,1234.75 421.119,1242.61 411.436,1242.61L376.349,1242.61C366.667,1242.61 358.806,1234.75 358.806,1225.07L358.806,1189.98C358.806,1180.3 366.667,1172.44 376.349,1172.44L411.436,1172.44C421.119,1172.44 428.98,1180.3 428.98,1189.98Z"/>
            </g>
            <g transform="matrix(1.06878,0,0,1.06878,826.88,-519.474)">
                <path d="M428.98,1189.98L428.98,1225.07C428.98,1234.75 421.119,1242.61 411.436,1242.61L376.349,1242.61C366.667,1242.61 358.806,1234.75 358.806,1225.07L358.806,1189.98C358.806,1180.3 366.667,1172.44 376.349,1172.44L411.436,1172.44C421.119,1172.44 428.98,1180.3 428.98,1189.98Z"/>
            </g>
        </g>
    </g>
</svg>
